<svg width="198" height="199" viewBox="0 0 198 199" fill="none" xmlns="http://www.w3.org/2000/svg">
<path d="M58.6205 149.958L57.4689 150.659L58.0424 151.878C61.8316 159.936 71.1219 168.66 84.088 168.66C91.1169 168.66 97.2419 166.779 101.616 162.639C106.006 158.484 108.42 152.257 108.42 144.011V91.54V90.04H106.92H91.0798H89.5798V91.54V141.585C89.5798 145.301 88.8675 147.238 87.9066 148.271C86.9796 149.268 85.5225 149.74 83.1598 149.74C78.6517 149.74 75.4136 146.952 73.1605 142.935L72.4005 141.58L71.0729 142.387L58.6205 149.958ZM114.005 149.994L112.904 150.731L113.5 151.915C115.809 156.498 119.066 160.699 123.627 163.752C128.199 166.812 133.994 168.66 141.276 168.66C148.697 168.66 155.319 166.724 160.119 162.875C164.959 158.995 167.82 153.266 167.82 146.001C167.82 139.329 165.899 134.367 162.193 130.369C158.553 126.441 153.284 123.55 146.82 120.774C146.819 120.774 146.818 120.774 146.818 120.773L143.052 119.145C143.051 119.144 143.05 119.144 143.049 119.143C139.786 117.719 137.693 116.64 136.393 115.45C135.215 114.372 134.67 113.186 134.67 111.3C134.67 109.852 135.213 108.628 136.146 107.758C137.083 106.885 138.506 106.286 140.394 106.286C142.341 106.286 143.817 106.692 145.082 107.536C146.374 108.398 147.577 109.802 148.813 112.028L149.592 113.431L150.939 112.56L162.695 104.957L163.882 104.189L163.186 102.959C160.585 98.3638 157.429 95.1006 153.591 93.0028C149.762 90.91 145.37 90.04 140.394 90.04C133.324 90.04 127.408 92.3181 123.245 96.2035C119.078 100.093 116.758 105.511 116.758 111.595C116.758 118.113 118.683 123.032 122.126 126.924C125.522 130.763 130.304 133.496 135.826 135.858C135.827 135.859 135.828 135.859 135.829 135.86L139.589 137.486C139.59 137.486 139.591 137.487 139.593 137.487C143.078 139.023 145.425 140.158 146.933 141.471C148.308 142.669 148.98 144.013 148.98 146.187C148.98 147.96 148.328 149.394 147.1 150.412C145.842 151.455 143.832 152.181 140.936 152.181C134.386 152.181 131.25 147.843 128.002 142.501L127.187 141.161L125.885 142.034L114.005 149.994ZM26.405 17.42H171.61C176.589 17.42 180.66 21.4972 180.66 26.5385V172.477C180.66 177.5 176.592 181.58 171.595 181.58H26.405C21.4088 181.58 17.3398 177.501 17.3398 172.461V26.5385C17.3398 21.4986 21.4088 17.42 26.405 17.42Z" fill="white" stroke="#1D7FD9" stroke-width="3"/>
</svg>
