<svg width="197" height="199" viewBox="0 0 197 199" fill="none" xmlns="http://www.w3.org/2000/svg">
<path d="M96.0599 55.72V54.22H94.5599H56.6599V36.1931C56.6599 31.3379 58.324 24.7054 64.0257 19.2805C69.7225 13.8603 79.646 9.46002 96.5299 9.46002C120.376 9.46002 132.46 23.3209 132.46 36.1931V87.56C132.46 93.5088 127.992 98 122.14 98H74.8599C65.3523 98 57.5999 105.853 57.5999 115.42V137.8H35.8293C29.7325 137.8 23.1738 135.379 18.1176 129.467C13.0524 123.545 9.37988 113.978 9.37988 99.5C9.37988 85.0217 13.0524 75.4554 18.1176 69.5328C23.1738 63.6208 29.7325 61.2 35.8293 61.2H94.5599H96.0599V59.7V55.72ZM100.94 143.28V144.78H102.44H140.34V162.807C140.34 167.662 138.676 174.295 132.974 179.72C127.277 185.14 117.354 189.54 100.47 189.54C76.6238 189.54 64.5399 175.679 64.5399 162.807V115.42C64.5399 109.471 69.0076 104.98 74.8599 104.98H122.14C131.647 104.98 139.4 97.127 139.4 87.56V61.2H161.171C167.267 61.2 173.826 63.6208 178.882 69.5328C183.947 75.4554 187.62 85.0217 187.62 99.5C187.62 113.978 183.947 123.545 178.882 129.467C173.826 135.379 167.267 137.8 161.171 137.8H102.44H100.94V139.3V143.28ZM88.1799 35.82C88.1799 30.6217 83.9827 26.36 78.7999 26.36C73.6171 26.36 69.4199 30.6217 69.4199 35.82C69.4199 41.0183 73.6171 45.28 78.7999 45.28C83.9827 45.28 88.1799 41.0183 88.1799 35.82ZM127.58 163.18C127.58 157.982 123.383 153.72 118.2 153.72C113.017 153.72 108.82 157.982 108.82 163.18C108.82 168.378 113.017 172.64 118.2 172.64C123.383 172.64 127.58 168.378 127.58 163.18Z" fill="white" stroke="#1D7FD9" stroke-width="3"/>
</svg>
