<svg width="259" height="259" viewBox="0 0 259 259" fill="none" xmlns="http://www.w3.org/2000/svg">
<ellipse cx="86.5572" cy="138.894" rx="23.4845" ry="27.5104" fill="#1D7FD9"/>
<ellipse cx="172.443" cy="138.894" rx="23.4845" ry="27.5104" fill="#1D7FD9"/>
<path d="M182.467 207.788C189.241 205.026 195.768 201.746 201.98 198.001L205.796 195.701L202.23 193.031C200.44 191.69 198.668 190.286 196.934 188.841L195.462 187.614L193.73 188.434C152.44 207.98 107.073 207.986 65.2568 188.428L63.5186 187.615L62.0517 188.852C60.3473 190.289 58.5835 191.686 56.7813 193.021L53.1778 195.691L57.0208 198.002C63.2138 201.728 69.7225 205.006 76.4931 207.768C73.203 214.042 69.5133 220.055 65.4638 225.787C45.3968 219.324 24.9994 209.639 3.96623 194.114C-0.251022 146.277 8.81026 97.8059 41.5368 48.0265C57.2133 40.75 73.9281 35.3707 91.3751 32.1664C93.3969 35.95 95.5892 40.4956 97.1306 44.198L98.0332 46.3661L100.354 46.0104C119.607 43.0608 139.043 43.0596 158.673 46.0117L160.989 46.3599L161.889 44.1982C163.435 40.4856 165.582 35.9432 167.573 32.1687C185 35.3724 201.695 40.7329 217.369 47.99C245.79 90.7213 259.967 138.766 255.034 194.114C233.999 209.659 213.581 219.346 193.492 225.809C189.435 220.081 185.756 214.056 182.467 207.788ZM60.1912 139.025C60.1912 154.85 71.6735 168.512 86.4755 168.512C101.508 168.512 112.77 154.848 112.76 139.046C112.992 123.151 101.475 109.518 86.4755 109.518C71.4293 109.518 60.1912 123.223 60.1912 139.025ZM146.239 139.025C146.239 154.85 157.722 168.512 172.524 168.512C187.56 168.512 198.797 154.844 198.808 139.049C199.041 123.152 187.524 109.518 172.524 109.518C157.477 109.518 146.239 123.223 146.239 139.025Z" stroke="white" stroke-width="6"/>
</svg>
