<svg width="26" height="27" viewBox="0 0 26 27" fill="none" xmlns="http://www.w3.org/2000/svg">
<g clip-path="url(#clip0_26_84)">
<path d="M21.6667 4.5H14.0834V9H15.4375C15.7658 9 16.0626 9.20475 16.1883 9.52088C16.3139 9.837 16.2446 10.1992 16.0117 10.44L13.5742 12.9712C13.2568 13.3009 12.7422 13.3009 12.4248 12.9712L9.98835 10.44C9.83235 10.2791 9.75002 10.0631 9.75002 9.84375C9.75002 9.73462 9.7706 9.6255 9.81177 9.52088C9.93744 9.20475 10.2343 9 10.5625 9H11.9167V4.5H4.33335C3.13627 4.5 2.16669 5.50688 2.16669 6.75V20.25C2.16669 21.4931 3.13627 22.5 4.33335 22.5H21.6667C22.8638 22.5 23.8333 21.4931 23.8333 20.25V6.75C23.8333 5.50688 22.8638 4.5 21.6667 4.5ZM19.5 19.125C19.5 19.746 19.0147 20.25 18.4167 20.25H7.58335C6.98535 20.25 6.50002 19.746 6.50002 19.125V18C6.50002 17.379 6.98535 16.875 7.58335 16.875H18.4167C19.0147 16.875 19.5 17.379 19.5 18V19.125Z" fill="#1D7FD9"/>
</g>
<defs>
<clipPath id="clip0_26_84">
<rect width="26" height="27" fill="white"/>
</clipPath>
</defs>
</svg>
