<svg width="49" height="49" viewBox="0 0 49 49" fill="none" xmlns="http://www.w3.org/2000/svg">
<path d="M44.3199 21.0109L43.7734 21.6298C43.4385 21.2351 43.0624 20.9032 42.6805 20.5565L41.8423 20.6799L41.0764 19.8141V20.8855L41.7326 21.382L42.1693 21.8766L42.753 21.2166C42.8999 21.4918 43.0448 21.7669 43.1907 22.0421V22.8667L42.5335 23.609L41.3309 24.4346L40.4202 25.3434L39.8365 24.6814L40.1283 23.9391L39.5456 23.279L38.5614 21.1754L37.7231 20.2274L37.5037 20.4742L37.8327 21.671L38.4517 22.3721C38.8052 23.3926 39.1549 24.368 39.6191 25.3434C40.3389 25.3434 41.0175 25.267 41.7325 25.177V25.7548L40.8579 27.9001L40.0558 28.8069L39.3997 30.2113V32.5205L39.6191 33.4294L39.2548 33.8408L38.4517 34.3363L37.6134 35.0375L38.3068 35.821L37.3588 36.6475L37.5409 37.1822L36.1189 38.7923H35.1719L34.3698 39.2878H33.8586V38.6277L33.6412 37.3056C33.3591 36.477 33.0654 35.6544 32.7666 34.8318C32.7666 34.2246 32.8028 33.6233 32.8391 33.0161L33.2045 32.1915L32.6932 31.2004L32.7304 29.8392L32.037 29.0556L32.3837 27.9215L31.8196 27.2815H30.8344L30.5064 26.9104L29.5222 27.5298L29.1217 27.0749L28.2099 27.8589C27.591 27.1572 26.971 26.456 26.3512 25.7548L25.6225 24.0214L26.2787 23.0323L25.9143 22.62L26.7154 20.7211C27.3736 19.9024 28.061 19.1169 28.7564 18.3286L29.9962 17.9986L31.381 17.834L32.329 18.0818L33.6775 19.4421L34.1515 18.9063L34.8067 18.8241L36.0465 19.2364H36.9945L37.6506 18.6585L37.9424 18.2463L37.2853 17.834L36.1914 17.7518C35.8878 17.3307 35.6057 16.888 35.2453 16.5139L34.88 16.6784L34.7341 17.7518L34.0779 17.0095L33.933 16.1829L33.2044 15.6071H32.9115L33.6411 16.4317L33.3493 17.174L32.7665 17.3386L33.1308 16.5963L32.4737 16.2673L31.8919 15.6072L30.797 15.854L30.6521 16.183L29.996 16.5963L29.6316 17.5042L28.7209 17.9576L28.3193 17.5042H27.8826V16.0186L28.8306 15.5231H29.5592L29.4123 14.9462L28.8306 14.3684L29.8139 14.1617L30.3603 13.5438L30.797 12.8005H31.6001L31.3807 12.2236L31.8919 11.8936V12.5537L32.9848 12.8005L34.0777 11.8936L34.1511 11.4803L35.0981 10.8208C34.7553 10.8634 34.4126 10.8947 34.0776 10.9858V10.2426L34.4419 9.41751H34.0776L33.277 10.1598L33.0575 10.5726L33.277 11.1509L32.9116 12.14L32.3289 11.81L31.8196 11.2331L31.0166 11.81L30.7247 10.4903L32.1096 9.58298V9.08748L32.985 8.51014L34.3698 8.17961L35.3178 8.51014L37.0669 8.84018L36.6301 9.33478H35.6822L36.6301 10.3249L37.3588 9.50024L37.5801 9.13742C37.5801 9.13742 40.3751 11.6425 41.9724 14.3828C43.5698 17.1239 44.3199 20.3547 44.3199 21.0109ZM26.2678 9.50024L26.1944 9.99484L26.7057 10.3249L27.5792 9.74754L27.1425 9.25244L26.5589 9.58298L26.2678 9.50024ZM27.0699 6.11768L25.1739 5.37488L22.9881 5.62218L20.29 6.36448L19.7798 6.85998L21.4564 8.01464V8.67471L20.8003 9.33478L21.6757 11.0687L22.2575 10.7376L22.9881 9.58298C24.1142 9.23479 25.124 8.84018 26.1944 8.34508L27.0699 6.11768ZM29.0384 13.0489L28.7465 12.3056L28.2353 12.471L28.3822 13.3779L29.0384 13.0489Z" fill="white"/>
<path d="M29.3292 12.8824L29.1832 13.8735L29.9853 13.708L30.5681 13.1312L30.0578 12.6357C29.8864 12.1793 29.6896 11.7533 29.4751 11.3156H29.0383V11.8102L29.3292 12.1402V12.8824ZM18.5408 28.56L17.9572 27.4045L16.8638 27.1572L16.2807 25.5902L14.8229 25.7548L13.584 24.8479L12.2712 26.0026V26.1847C11.8741 26.0701 11.3859 26.0545 11.0323 25.837L10.7405 25.0124V24.1045L9.86591 24.1868C9.93892 23.6089 10.0113 23.0321 10.0848 22.4544H9.57408L9.06434 23.1144L8.5536 23.3612L7.82444 22.9499L7.75143 22.042L7.89734 21.0519L8.99124 20.2273H9.86581L10.0112 19.7318L11.1046 19.9786L11.9067 20.9697L12.0526 19.3185L13.4378 18.1638L13.9481 16.9259L14.9685 16.5137L15.5517 15.689L16.8635 15.4403L17.5202 14.4512H15.5517L16.791 13.8734H17.6651L18.9049 13.4601L19.0508 12.9665L18.613 12.5533L18.1028 12.3878L18.2487 11.8932L17.8844 11.1509L17.0093 11.4799L17.1552 10.8204L16.1347 10.2425L15.3332 11.6444L15.4057 12.1399L14.6041 12.4709L14.0934 13.5433L13.8749 12.5532L12.4897 11.9753L12.2708 11.233L14.0934 10.1597L14.8954 9.41741L14.9684 8.51004L14.5312 8.26224L13.9481 8.1795L13.5837 9.08737C13.5837 9.08737 12.9741 9.20681 12.8174 9.24552C10.8156 11.0901 6.77096 15.0721 5.8313 22.5895C5.8685 22.7638 6.51243 23.7744 6.51243 23.7744L8.04315 24.6813L9.57388 25.0945L10.2305 25.9201L11.2505 26.6624L11.8337 26.5801L12.2709 26.777V26.9102L11.6882 28.4776L11.2504 29.1377L11.3963 29.4687L11.032 30.7046L12.3443 33.0981L13.6561 34.2536L14.2398 35.0783L14.1664 36.8117L14.6041 37.8008L14.1664 39.6987C14.1664 39.6987 14.1321 39.687 14.1879 39.8769C14.2443 40.067 16.5236 41.3323 16.6685 41.2246C16.813 41.1148 16.9364 41.0189 16.9364 41.0189L16.791 40.6075L17.3737 40.0297L17.5927 39.4518L18.5406 39.1208L19.2693 37.3052L19.0509 36.8116L19.5601 36.0693L20.654 35.8206L21.2377 34.5004L21.0918 32.8513L21.9663 31.6134L22.1122 30.3755C20.9155 29.782 19.7287 29.1711 18.5408 28.56ZM16.9367 9.82977L17.6654 10.3249H18.249V9.74754L17.5204 9.41751L16.9367 9.82977Z" fill="white"/>
<path d="M15.0418 9.17021L14.677 10.0776H15.4062L15.771 9.25245C16.0854 9.03012 16.3983 8.80639 16.7185 8.59238L17.4476 8.84018C17.9334 9.17021 18.4192 9.50025 18.9054 9.82978L19.6349 9.17021L18.8324 8.84018L18.4675 8.09738L17.0827 7.93231L17.0097 7.51955L16.3535 7.68501L16.0623 8.26245L15.6975 7.51965L15.5521 7.84968L15.6251 8.67481L15.0418 9.17021ZM17.6655 7.10678L18.0303 6.77725L18.7594 6.61218C19.2589 6.36929 19.7603 6.20573 20.2902 6.03435L19.9994 5.53925L19.0582 5.67443L18.6135 6.11758L17.8805 6.22388L17.2287 6.52995L16.9119 6.68318L16.7185 6.94221L17.6655 7.10678ZM18.9053 14.9458L19.343 14.2858L18.6863 13.7912L18.9053 14.9458Z" fill="white"/>
<path d="M43.8703 23.9748C43.8703 34.3524 35.4575 42.7652 25.0813 42.7652C14.7041 42.7652 6.29175 34.3524 6.29175 23.9748C6.29175 13.5977 14.7041 5.18579 25.0813 5.18579C35.4575 5.18579 43.8703 13.5977 43.8703 23.9748Z" stroke="white" stroke-width="1.2"/>
</svg>
