<svg width="48" height="51" viewBox="0 0 48 51" fill="none" xmlns="http://www.w3.org/2000/svg">
<g filter="url(#filter0_dd_9_24)">
<path d="M21.8 4.20002C12.6 5.20002 5.20002 12.6 4.20002 21.6C3.20002 31 8.60002 39.4 16.8 42.6C17.4 42.8 18 42.4 18 41.6V38.4C18 38.4 17.2 38.6 16.2 38.6C13.4 38.6 12.2 36.2 12 34.8C11.8 34 11.4 33.4 10.8 32.8C10.2 32.6 10 32.6 10 32.4C10 32 10.6 32 10.8 32C12 32 13 33.4 13.4 34C14.4 35.6 15.6 36 16.2 36C17 36 17.6 35.8 18 35.6C18.2 34.2 18.8 32.8 20 32C15.4 31 12 28.4 12 24C12 21.8 13 19.6 14.4 18C14.2 17.6 14 16.6 14 15.2C14 14.4 14 13.4 14.4 12.6C14.4 12.2 14.8 12 15 12H15.2C16.2 12.2 18.2 12.8 20 14.6C21.2 14.2 22.6 14 24 14C25.4 14 26.8 14.2 28 14.6C29.8 12.8 32 12.2 33 12H33.2C33.6 12 33.8 12.2 34 12.6C34 13.4 34 14.4 34 15.2C34 16.8 33.8 17.6 33.6 18C35 19.6 36 21.6 36 24C36 28.4 32.6 31 28 32C29.2 33 30 34.8 30 36.6V41.8C30 42.4 30.6 43 31.4 42.8C38.8 39.8 44 32.6 44 24.2C44 12.2 33.8 2.80001 21.8 4.20002Z" fill="white"/>
</g>
<defs>
<filter id="filter0_dd_9_24" x="-4" y="0" width="56" height="56" filterUnits="userSpaceOnUse" color-interpolation-filters="sRGB">
<feFlood flood-opacity="0" result="BackgroundImageFix"/>
<feColorMatrix in="SourceAlpha" type="matrix" values="0 0 0 0 0 0 0 0 0 0 0 0 0 0 0 0 0 0 127 0" result="hardAlpha"/>
<feOffset dy="4"/>
<feGaussianBlur stdDeviation="2"/>
<feComposite in2="hardAlpha" operator="out"/>
<feColorMatrix type="matrix" values="0 0 0 0 0 0 0 0 0 0 0 0 0 0 0 0 0 0 0.25 0"/>
<feBlend mode="normal" in2="BackgroundImageFix" result="effect1_dropShadow_9_24"/>
<feColorMatrix in="SourceAlpha" type="matrix" values="0 0 0 0 0 0 0 0 0 0 0 0 0 0 0 0 0 0 127 0" result="hardAlpha"/>
<feOffset dy="4"/>
<feGaussianBlur stdDeviation="2"/>
<feComposite in2="hardAlpha" operator="out"/>
<feColorMatrix type="matrix" values="0 0 0 0 0 0 0 0 0 0 0 0 0 0 0 0 0 0 0.25 0"/>
<feBlend mode="normal" in2="effect1_dropShadow_9_24" result="effect2_dropShadow_9_24"/>
<feBlend mode="normal" in="SourceGraphic" in2="effect2_dropShadow_9_24" result="shape"/>
</filter>
</defs>
</svg>
