<svg width="199" height="199" viewBox="0 0 199 199" fill="none" xmlns="http://www.w3.org/2000/svg">
<path d="M179.077 10.2573L179.082 10.263L179.087 10.2687C179.559 10.7792 179.789 11.46 179.721 12.1525L179.72 12.1644L165.729 169.071C165.729 169.072 165.729 169.073 165.729 169.075C165.63 170.105 164.925 170.959 163.928 171.254C163.926 171.255 163.924 171.255 163.923 171.256L100.161 189.442L100.149 189.446L100.136 189.45C99.9366 189.51 99.728 189.54 99.4845 189.54C99.2303 189.54 99.0157 189.508 98.851 189.455L98.8296 189.448L98.8079 189.442L35.0928 171.256C35.0911 171.255 35.0895 171.255 35.0878 171.254C34.0793 170.955 33.3738 170.096 33.288 169.085L33.2874 169.079L19.2797 12.1642L19.2798 12.1642L19.2786 12.1525C19.2113 11.46 19.4411 10.7792 19.9132 10.2687L19.9184 10.263L19.9236 10.2573C20.3787 9.75477 21.0442 9.46002 21.7501 9.46002H177.25C177.956 9.46002 178.621 9.75477 179.077 10.2573ZM146.654 64.8535H148.026L148.148 63.4867L149.873 44.1309L150.019 42.4977H148.379H50.6362H48.996L49.1422 44.1313L54.4126 103.054L54.5348 104.42H55.9066H122.096L120.027 127.305L99.6993 131.641L78.9749 127.301L78.2335 118.941L78.1123 117.574H76.7394H57.3525H55.7137L55.8583 119.206L58.0193 143.599L58.1087 144.608L59.0786 144.902L98.6231 156.882L98.6454 156.889L99.0118 157.006L99.4562 157.148L99.9028 157.014L139.936 144.918L140.906 144.625L140.996 143.616L146.344 83.7446L146.49 82.1111H144.85H74.9413L73.4182 64.8535H146.654Z" fill="white" stroke="#1D7FD9" stroke-width="3"/>
<rect x="0.5" y="0.5" width="198" height="198" stroke="black"/>
</svg>
