<svg width="200" height="199" viewBox="0 0 200 199" fill="none" xmlns="http://www.w3.org/2000/svg">
<path d="M116 106.751H117.5V105.251V91.54V90.04H116H60H58.5V91.54V105.251V106.751H60H78.5V167.16V168.66H80H96H97.5V167.16V106.751H116ZM118.984 163.626V164.719L120.024 165.054L120.484 163.626C120.024 165.054 120.025 165.054 120.026 165.054L120.028 165.055L120.037 165.058L120.066 165.067C120.092 165.075 120.128 165.086 120.176 165.101C120.271 165.131 120.41 165.173 120.59 165.227C120.949 165.334 121.472 165.485 122.135 165.664C123.46 166.022 125.348 166.492 127.613 166.947C132.13 167.855 138.199 168.712 144.303 168.462C150.383 168.213 156.681 166.858 161.487 163.174C166.37 159.429 169.497 153.445 169.496 144.438C169.496 132.311 160.942 126.617 153.087 122.673C151.649 121.952 150.258 121.297 148.933 120.674C146.522 119.54 144.333 118.51 142.491 117.369C139.654 115.612 138.332 113.985 138.332 112.037C138.332 110.255 138.956 108.616 140.402 107.396C141.878 106.152 144.387 105.195 148.432 105.195C152.418 105.195 156.227 106.37 159.079 107.579C160.497 108.18 161.658 108.781 162.46 109.229C162.861 109.453 163.171 109.638 163.378 109.765C163.482 109.828 163.559 109.877 163.609 109.909C163.634 109.925 163.652 109.937 163.663 109.944L163.674 109.951L163.675 109.952L163.675 109.952L163.676 109.952L163.676 109.953L165.901 111.429L166.003 108.759L166.563 94.0168L166.608 92.8252L165.458 92.5124L165.064 93.9598C165.458 92.5124 165.457 92.5122 165.456 92.512L165.454 92.5113L165.446 92.5092L165.418 92.5016C165.393 92.4952 165.359 92.486 165.313 92.4742C165.223 92.4507 165.091 92.4168 164.921 92.3744C164.58 92.2896 164.085 92.1704 163.456 92.0305C162.2 91.7509 160.411 91.3878 158.265 91.0508C153.985 90.3787 148.237 89.8025 142.455 90.2225C136.698 90.6409 130.737 92.059 126.186 95.5253C121.556 99.0526 118.564 104.565 118.564 112.733C118.564 125.027 126.988 131.109 134.798 135.293C136.336 136.118 137.879 136.883 139.339 137.607C139.735 137.804 140.124 137.997 140.506 138.187C142.315 139.09 143.948 139.933 145.329 140.794C148.189 142.576 149.448 144.115 149.448 145.827C149.448 145.858 149.448 145.893 149.449 145.931C149.453 146.536 149.464 148.01 148.546 149.394C147.643 150.754 145.572 152.391 140.468 152.391C135.317 152.391 130.546 150.776 127.025 149.126C125.272 148.304 123.849 147.483 122.869 146.87C122.379 146.563 122.001 146.31 121.748 146.136C121.622 146.048 121.527 145.981 121.466 145.937C121.435 145.915 121.413 145.898 121.399 145.888L121.385 145.878L121.384 145.877L121.383 145.877L121.383 145.876L121.383 145.876L118.984 144.077V147.077V163.626ZM20 17.42H180C181.39 17.42 182.5 18.5376 182.5 19.9V179.1C182.5 180.462 181.39 181.58 180 181.58H20C18.6103 181.58 17.5 180.462 17.5 179.1V19.9C17.5 18.5376 18.6103 17.42 20 17.42Z" fill="white" stroke="#1D7FD9" stroke-width="3"/>
</svg>
