<svg width="199" height="199" viewBox="0 0 199 199" fill="none" xmlns="http://www.w3.org/2000/svg">
<mask id="path-1-inside-1_12_112" fill="white">
<path fill-rule="evenodd" clip-rule="evenodd" d="M137.527 15.8578C134.424 15.7535 131.176 16.2945 127.919 17.3503C121.406 19.462 114.581 23.5771 107.576 29.2748C104.831 31.5077 102.061 34.0602 99.2821 36.7684C96.5641 34.1289 93.8511 31.645 91.1666 29.4613C84.1678 23.7682 77.361 19.6515 70.8624 17.5447C64.3638 15.4378 57.8977 15.3725 52.5871 18.4386C47.2764 21.5047 44.1006 27.1331 42.6759 33.8145C41.2512 40.4958 41.4082 48.4525 42.8392 57.3602C43.3362 60.4543 44.0451 63.7002 44.8525 67.007C41.818 67.9267 38.8711 68.8936 36.1385 69.9609C27.8915 73.182 21.0677 77.0355 16.0986 81.6211C11.1294 86.2067 7.9209 91.7721 7.9209 97.8831C7.9209 103.994 11.1294 109.552 16.0986 114.137C21.0677 118.723 27.8915 122.584 36.1385 125.805C39.0605 126.947 42.2241 127.974 45.4899 128.946C44.3152 133.335 43.3634 137.594 42.7148 141.632C41.2827 150.547 41.1314 158.505 42.5593 165.201C43.9873 171.898 47.1647 177.558 52.5016 180.639C57.8385 183.72 64.3335 183.645 70.8469 181.533C77.3602 179.421 84.1778 175.314 91.1822 169.616C93.9019 167.404 96.6531 164.88 99.4065 162.201C102.174 164.896 104.936 167.432 107.67 169.655C114.668 175.348 121.483 179.457 127.982 181.564C134.48 183.671 140.946 183.736 146.257 180.67C151.568 177.604 154.736 171.976 156.16 165.294C157.585 158.613 157.428 150.664 155.997 141.756C155.347 137.708 154.394 133.434 153.214 129.031C156.588 128.036 159.851 126.981 162.861 125.805C171.108 122.584 177.932 118.723 182.901 114.137C187.87 109.552 191.079 103.994 191.079 97.8831C191.079 91.7721 187.87 86.2067 182.901 81.6211C177.932 77.0355 171.108 73.182 162.861 69.9609C160.089 68.8783 157.097 67.8988 154.015 66.9682C154.829 63.6411 155.551 60.3718 156.052 57.2591C157.484 48.3443 157.635 40.3789 156.207 33.6823C154.779 26.9858 151.594 21.3333 146.257 18.252C143.589 16.7114 140.631 15.9622 137.527 15.8578ZM137.162 23.9577C139.109 24.011 140.771 24.4744 142.191 25.2948C145.033 26.9356 147.134 30.129 148.255 35.3847C149.375 40.6404 149.337 47.7414 148.014 55.9765C147.561 58.7961 146.903 61.7843 146.156 64.846C138.015 62.8868 129.094 61.4329 119.586 60.5784C114.813 53.9661 109.909 47.9422 104.964 42.5984C107.58 40.0454 110.178 37.6577 112.715 35.5946C119.185 30.3313 125.311 26.75 130.423 25.0927C132.978 24.264 135.215 23.9045 137.162 23.9577ZM61.6354 23.9811C63.5939 23.9264 65.8349 24.2849 68.3982 25.116C73.5249 26.7781 79.6613 30.3578 86.1372 35.6257C88.6226 37.6474 91.1628 39.9897 93.7241 42.4818C88.743 47.8693 83.7981 53.9455 78.9934 60.6173C69.5259 61.4873 60.6415 62.9491 52.5404 64.916C51.7988 61.8712 51.141 58.8984 50.6904 56.0931C49.3663 47.8509 49.3332 40.7489 50.4571 35.478C51.5811 30.2071 53.6989 26.9896 56.5671 25.3336C58.0012 24.5057 59.6768 24.0357 61.6354 23.9811ZM99.4065 48.3275C102.649 51.8557 105.891 55.7167 109.108 59.871C105.948 59.7393 102.749 59.6611 99.4998 59.6611C96.1862 59.6611 92.9264 59.7418 89.7052 59.8788C92.9222 55.7212 96.1635 51.8584 99.4065 48.3275ZM99.4998 67.6989C104.912 67.6989 110.187 67.9213 115.319 68.2974C118.849 73.3686 122.3 78.7485 125.587 84.4429C128.476 89.4463 131.09 94.4421 133.47 99.3756C131.065 104.375 128.407 109.438 125.479 114.511C122.901 118.976 120.208 123.217 117.472 127.306C111.676 127.79 105.67 128.06 99.4998 128.06C93.181 128.06 87.0402 127.774 81.1156 127.267C78.4246 123.237 75.7779 119.06 73.2411 114.666C70.3191 109.605 67.674 104.551 65.2733 99.5622C67.6841 94.5453 70.3411 89.4632 73.28 84.3729C76.5504 78.7084 79.9906 73.3596 83.502 68.313C88.6885 67.9284 94.0251 67.6989 99.4998 67.6989ZM125.564 69.2924C132.125 70.1111 138.285 71.2476 144.018 72.6117C142.317 78.1882 140.222 84.0131 137.683 90.0242C136.034 86.8465 134.327 83.658 132.482 80.4629C130.247 76.5908 127.919 72.8993 125.564 69.2924ZM73.0079 69.3546C70.7031 72.8941 68.4352 76.5138 66.245 80.3074C64.3766 83.5435 62.6339 86.7749 60.9668 89.9931C58.4499 84.0181 56.3671 78.2264 54.6781 72.6816C60.3684 71.3151 66.4927 70.1826 73.0079 69.3546ZM151.893 74.7261C154.714 75.5797 157.439 76.4706 159.938 77.4468C167.541 80.4161 173.554 83.9322 177.452 87.5289C181.349 91.1256 183.041 94.5556 183.041 97.8831C183.041 101.211 181.349 104.641 177.452 108.237C173.554 111.834 167.541 115.35 159.938 118.32C157.161 119.404 154.109 120.388 150.937 121.32C148.673 114.32 145.785 107.017 142.347 99.5622C146.3 91.003 149.493 82.6578 151.893 74.7261ZM46.9746 74.7649C49.347 82.6175 52.4992 90.8798 56.3961 99.3523C52.9356 106.851 50.0327 114.195 47.7598 121.235C44.699 120.327 41.7508 119.37 39.0613 118.32C31.4589 115.35 25.4453 111.834 21.5477 108.237C17.6502 104.641 15.9586 101.211 15.9586 97.8831C15.9586 94.5556 17.6502 91.1256 21.5477 87.5289C25.4453 83.9322 31.4589 80.4161 39.0613 77.4468C41.5222 76.4856 44.2013 75.6074 46.9746 74.7649ZM99.4998 79.6C88.5564 79.6 79.5998 88.5567 79.5998 99.5C79.5998 110.443 88.5564 119.4 99.4998 119.4C110.443 119.4 119.4 110.443 119.4 99.5C119.4 88.5567 110.443 79.6 99.4998 79.6ZM61.0601 108.914C62.7345 112.148 64.4759 115.393 66.3538 118.646C67.8231 121.191 69.3237 123.668 70.8469 126.101C65.5019 125.36 60.4211 124.421 55.6498 123.31C57.1671 118.663 58.9823 113.839 61.0601 108.914ZM137.784 108.914C139.87 113.851 141.686 118.682 143.21 123.341C138.423 124.451 133.327 125.386 127.966 126.124C129.509 123.662 131.033 121.153 132.521 118.576C134.385 115.347 136.12 112.124 137.784 108.914ZM53.3566 131.037C60.5597 132.743 68.3671 134.054 76.6459 134.908C82.1724 142.901 87.9298 150.084 93.7241 156.363C91.1331 158.889 88.565 161.26 86.0517 163.304C79.5814 168.568 73.448 172.141 68.3361 173.799C63.2241 175.456 59.409 175.237 56.5671 173.596C53.7251 171.956 51.6323 168.762 50.5116 163.507C49.3909 158.251 49.4218 151.158 50.7448 142.922C51.3449 139.187 52.2418 135.186 53.3566 131.037ZM145.511 131.068C146.635 135.243 147.534 139.258 148.138 143.016C149.462 151.258 149.495 158.36 148.371 163.631C147.247 168.902 145.145 172.127 142.277 173.783C139.409 175.439 135.557 175.655 130.43 173.993C125.304 172.331 119.167 168.751 112.691 163.483C110.16 161.424 107.574 159.034 104.964 156.487C110.798 150.184 116.596 142.965 122.159 134.924C130.459 134.075 138.288 132.772 145.511 131.068ZM87.0312 135.724C91.1177 135.947 95.2581 136.097 99.4998 136.097C103.601 136.097 107.607 135.956 111.564 135.748C107.519 141.205 103.396 146.166 99.2899 150.634C95.1859 146.157 91.0707 141.186 87.0312 135.724Z"/>
</mask>
<path fill-rule="evenodd" clip-rule="evenodd" d="M137.527 15.8578C134.424 15.7535 131.176 16.2945 127.919 17.3503C121.406 19.462 114.581 23.5771 107.576 29.2748C104.831 31.5077 102.061 34.0602 99.2821 36.7684C96.5641 34.1289 93.8511 31.645 91.1666 29.4613C84.1678 23.7682 77.361 19.6515 70.8624 17.5447C64.3638 15.4378 57.8977 15.3725 52.5871 18.4386C47.2764 21.5047 44.1006 27.1331 42.6759 33.8145C41.2512 40.4958 41.4082 48.4525 42.8392 57.3602C43.3362 60.4543 44.0451 63.7002 44.8525 67.007C41.818 67.9267 38.8711 68.8936 36.1385 69.9609C27.8915 73.182 21.0677 77.0355 16.0986 81.6211C11.1294 86.2067 7.9209 91.7721 7.9209 97.8831C7.9209 103.994 11.1294 109.552 16.0986 114.137C21.0677 118.723 27.8915 122.584 36.1385 125.805C39.0605 126.947 42.2241 127.974 45.4899 128.946C44.3152 133.335 43.3634 137.594 42.7148 141.632C41.2827 150.547 41.1314 158.505 42.5593 165.201C43.9873 171.898 47.1647 177.558 52.5016 180.639C57.8385 183.72 64.3335 183.645 70.8469 181.533C77.3602 179.421 84.1778 175.314 91.1822 169.616C93.9019 167.404 96.6531 164.88 99.4065 162.201C102.174 164.896 104.936 167.432 107.67 169.655C114.668 175.348 121.483 179.457 127.982 181.564C134.48 183.671 140.946 183.736 146.257 180.67C151.568 177.604 154.736 171.976 156.16 165.294C157.585 158.613 157.428 150.664 155.997 141.756C155.347 137.708 154.394 133.434 153.214 129.031C156.588 128.036 159.851 126.981 162.861 125.805C171.108 122.584 177.932 118.723 182.901 114.137C187.87 109.552 191.079 103.994 191.079 97.8831C191.079 91.7721 187.87 86.2067 182.901 81.6211C177.932 77.0355 171.108 73.182 162.861 69.9609C160.089 68.8783 157.097 67.8988 154.015 66.9682C154.829 63.6411 155.551 60.3718 156.052 57.2591C157.484 48.3443 157.635 40.3789 156.207 33.6823C154.779 26.9858 151.594 21.3333 146.257 18.252C143.589 16.7114 140.631 15.9622 137.527 15.8578ZM137.162 23.9577C139.109 24.011 140.771 24.4744 142.191 25.2948C145.033 26.9356 147.134 30.129 148.255 35.3847C149.375 40.6404 149.337 47.7414 148.014 55.9765C147.561 58.7961 146.903 61.7843 146.156 64.846C138.015 62.8868 129.094 61.4329 119.586 60.5784C114.813 53.9661 109.909 47.9422 104.964 42.5984C107.58 40.0454 110.178 37.6577 112.715 35.5946C119.185 30.3313 125.311 26.75 130.423 25.0927C132.978 24.264 135.215 23.9045 137.162 23.9577ZM61.6354 23.9811C63.5939 23.9264 65.8349 24.2849 68.3982 25.116C73.5249 26.7781 79.6613 30.3578 86.1372 35.6257C88.6226 37.6474 91.1628 39.9897 93.7241 42.4818C88.743 47.8693 83.7981 53.9455 78.9934 60.6173C69.5259 61.4873 60.6415 62.9491 52.5404 64.916C51.7988 61.8712 51.141 58.8984 50.6904 56.0931C49.3663 47.8509 49.3332 40.7489 50.4571 35.478C51.5811 30.2071 53.6989 26.9896 56.5671 25.3336C58.0012 24.5057 59.6768 24.0357 61.6354 23.9811ZM99.4065 48.3275C102.649 51.8557 105.891 55.7167 109.108 59.871C105.948 59.7393 102.749 59.6611 99.4998 59.6611C96.1862 59.6611 92.9264 59.7418 89.7052 59.8788C92.9222 55.7212 96.1635 51.8584 99.4065 48.3275ZM99.4998 67.6989C104.912 67.6989 110.187 67.9213 115.319 68.2974C118.849 73.3686 122.3 78.7485 125.587 84.4429C128.476 89.4463 131.09 94.4421 133.47 99.3756C131.065 104.375 128.407 109.438 125.479 114.511C122.901 118.976 120.208 123.217 117.472 127.306C111.676 127.79 105.67 128.06 99.4998 128.06C93.181 128.06 87.0402 127.774 81.1156 127.267C78.4246 123.237 75.7779 119.06 73.2411 114.666C70.3191 109.605 67.674 104.551 65.2733 99.5622C67.6841 94.5453 70.3411 89.4632 73.28 84.3729C76.5504 78.7084 79.9906 73.3596 83.502 68.313C88.6885 67.9284 94.0251 67.6989 99.4998 67.6989ZM125.564 69.2924C132.125 70.1111 138.285 71.2476 144.018 72.6117C142.317 78.1882 140.222 84.0131 137.683 90.0242C136.034 86.8465 134.327 83.658 132.482 80.4629C130.247 76.5908 127.919 72.8993 125.564 69.2924ZM73.0079 69.3546C70.7031 72.8941 68.4352 76.5138 66.245 80.3074C64.3766 83.5435 62.6339 86.7749 60.9668 89.9931C58.4499 84.0181 56.3671 78.2264 54.6781 72.6816C60.3684 71.3151 66.4927 70.1826 73.0079 69.3546ZM151.893 74.7261C154.714 75.5797 157.439 76.4706 159.938 77.4468C167.541 80.4161 173.554 83.9322 177.452 87.5289C181.349 91.1256 183.041 94.5556 183.041 97.8831C183.041 101.211 181.349 104.641 177.452 108.237C173.554 111.834 167.541 115.35 159.938 118.32C157.161 119.404 154.109 120.388 150.937 121.32C148.673 114.32 145.785 107.017 142.347 99.5622C146.3 91.003 149.493 82.6578 151.893 74.7261ZM46.9746 74.7649C49.347 82.6175 52.4992 90.8798 56.3961 99.3523C52.9356 106.851 50.0327 114.195 47.7598 121.235C44.699 120.327 41.7508 119.37 39.0613 118.32C31.4589 115.35 25.4453 111.834 21.5477 108.237C17.6502 104.641 15.9586 101.211 15.9586 97.8831C15.9586 94.5556 17.6502 91.1256 21.5477 87.5289C25.4453 83.9322 31.4589 80.4161 39.0613 77.4468C41.5222 76.4856 44.2013 75.6074 46.9746 74.7649ZM99.4998 79.6C88.5564 79.6 79.5998 88.5567 79.5998 99.5C79.5998 110.443 88.5564 119.4 99.4998 119.4C110.443 119.4 119.4 110.443 119.4 99.5C119.4 88.5567 110.443 79.6 99.4998 79.6ZM61.0601 108.914C62.7345 112.148 64.4759 115.393 66.3538 118.646C67.8231 121.191 69.3237 123.668 70.8469 126.101C65.5019 125.36 60.4211 124.421 55.6498 123.31C57.1671 118.663 58.9823 113.839 61.0601 108.914ZM137.784 108.914C139.87 113.851 141.686 118.682 143.21 123.341C138.423 124.451 133.327 125.386 127.966 126.124C129.509 123.662 131.033 121.153 132.521 118.576C134.385 115.347 136.12 112.124 137.784 108.914ZM53.3566 131.037C60.5597 132.743 68.3671 134.054 76.6459 134.908C82.1724 142.901 87.9298 150.084 93.7241 156.363C91.1331 158.889 88.565 161.26 86.0517 163.304C79.5814 168.568 73.448 172.141 68.3361 173.799C63.2241 175.456 59.409 175.237 56.5671 173.596C53.7251 171.956 51.6323 168.762 50.5116 163.507C49.3909 158.251 49.4218 151.158 50.7448 142.922C51.3449 139.187 52.2418 135.186 53.3566 131.037ZM145.511 131.068C146.635 135.243 147.534 139.258 148.138 143.016C149.462 151.258 149.495 158.36 148.371 163.631C147.247 168.902 145.145 172.127 142.277 173.783C139.409 175.439 135.557 175.655 130.43 173.993C125.304 172.331 119.167 168.751 112.691 163.483C110.16 161.424 107.574 159.034 104.964 156.487C110.798 150.184 116.596 142.965 122.159 134.924C130.459 134.075 138.288 132.772 145.511 131.068ZM87.0312 135.724C91.1177 135.947 95.2581 136.097 99.4998 136.097C103.601 136.097 107.607 135.956 111.564 135.748C107.519 141.205 103.396 146.166 99.2899 150.634C95.1859 146.157 91.0707 141.186 87.0312 135.724Z" fill="white" stroke="#1D7FD9" stroke-width="6" mask="url(#path-1-inside-1_12_112)"/>
</svg>
