<svg width="73" height="35" viewBox="0 0 73 35" fill="none" xmlns="http://www.w3.org/2000/svg">
<path d="M16.5774 2.46424L56.7758 2.84601C64.6211 2.92052 70.9207 9.34086 70.8462 17.1862L70.8334 18.5289C70.7589 26.3743 64.3386 32.6738 56.4932 32.5993L16.2948 32.2175C8.4494 32.143 2.14986 25.7227 2.22437 17.8773L2.23712 16.5347C2.31163 8.68927 8.73197 2.38973 16.5774 2.46424Z" stroke="#1D7FD9" stroke-width="4"/>
<circle cx="18.138" cy="17.576" r="9.73098" transform="rotate(0.544132 18.138 17.576)" stroke="#1D7FD9" stroke-width="2"/>
<path d="M64.6093 18.5055C65.0035 18.1187 65.0095 17.4856 64.6227 17.0913L58.3195 10.6672C57.9327 10.273 57.2996 10.267 56.9054 10.6538C56.5111 11.0406 56.5051 11.6737 56.8919 12.068L62.4948 17.7783L56.7845 23.3812C56.3903 23.7679 56.3843 24.4011 56.7711 24.7953C57.1579 25.1895 57.791 25.1955 58.1852 24.8087L64.6093 18.5055ZM37.6207 18.5421L63.8995 18.7917L63.9185 16.7917L37.6397 16.5422L37.6207 18.5421Z" fill="#1D7FD9"/>
</svg>
